# xmcd
#
# Track frame offsets:
# 150
# 19949
# 36225
# 55532
# 74392
# 89608
# 105686
# 124360
# 143996
# 160779
# 178180
# 196417
# 213532
#
# Disc length: 3051 seconds
#
#
# Revision: 0
# Processed by: cddbd v1.4PL0 Copyright (c) Steve Scherf et al.
# Submitted via: FreeRIP 2.35 
#
DISCID=c20be90d
DTITLE=стекиос яоййос - де хекы акко паяалухи
DYEAR=1900
DGENRE=New Age
TTITLE0=ав йаи ма там
TTITLE1=йяата йаядиа
TTITLE2=йаи сумевифы ма с'ацапы
TTITLE3=дяолос
TTITLE4=аеяийо
TTITLE5=пеяма
TTITLE6=хакассес
TTITLE7=ека паки
TTITLE8=ейама паяа покка
TTITLE9=ав йаи ма лпояоуса
TTITLE10=сам тяекос
TTITLE11=неяы ема паиди
TTITLE12=де хекы акко паяалухи
EXTD=
EXTT0=
EXTT1=
EXTT2=
EXTT3=
EXTT4=
EXTT5=
EXTT6=
EXTT7=
EXTT8=
EXTT9=
EXTT10=
EXTT11=
EXTT12=
PLAYORDER=
